<mxfile host="app.diagrams.net" modified="2022-02-23T10:32:58.227Z" agent="5.0 (Macintosh; Intel Mac OS X 10_15_7) AppleWebKit/537.36 (KHTML, like Gecko) Chrome/98.0.4758.102 Safari/537.36" etag="8xt7Y_8OJyXsoHP5ee0i" version="16.5.6" type="github">
  <diagram id="kgpKYQtTHZ0yAKxKKP6v" name="Page-1">
    <mxGraphModel dx="946" dy="527" grid="1" gridSize="10" guides="1" tooltips="1" connect="1" arrows="1" fold="1" page="1" pageScale="1" pageWidth="850" pageHeight="1100" math="0" shadow="0">
      <root>
        <mxCell id="0" />
        <mxCell id="1" parent="0" />
        <mxCell id="3nuBFxr9cyL0pnOWT2aG-1" value="CRM" style="shape=umlLifeline;perimeter=lifelinePerimeter;container=1;collapsible=0;recursiveResize=0;rounded=0;shadow=0;strokeWidth=1;" parent="1" vertex="1">
          <mxGeometry x="120" y="80" width="100" height="700" as="geometry" />
        </mxCell>
        <mxCell id="3nuBFxr9cyL0pnOWT2aG-2" value="" style="points=[];perimeter=orthogonalPerimeter;rounded=0;shadow=0;strokeWidth=1;" parent="3nuBFxr9cyL0pnOWT2aG-1" vertex="1">
          <mxGeometry x="45" y="70" width="10" height="60" as="geometry" />
        </mxCell>
        <mxCell id="1vOSKHXe1nliGFfEZGOb-9" value="" style="html=1;points=[];perimeter=orthogonalPerimeter;" parent="3nuBFxr9cyL0pnOWT2aG-1" vertex="1">
          <mxGeometry x="45" y="300" width="10" height="80" as="geometry" />
        </mxCell>
        <mxCell id="1vOSKHXe1nliGFfEZGOb-16" value="" style="html=1;points=[];perimeter=orthogonalPerimeter;" parent="3nuBFxr9cyL0pnOWT2aG-1" vertex="1">
          <mxGeometry x="45" y="460" width="10" height="80" as="geometry" />
        </mxCell>
        <mxCell id="1vOSKHXe1nliGFfEZGOb-21" value="" style="html=1;points=[];perimeter=orthogonalPerimeter;" parent="3nuBFxr9cyL0pnOWT2aG-1" vertex="1">
          <mxGeometry x="35" y="60" width="10" height="580" as="geometry" />
        </mxCell>
        <mxCell id="3nuBFxr9cyL0pnOWT2aG-5" value="BOSS" style="shape=umlLifeline;perimeter=lifelinePerimeter;container=1;collapsible=0;recursiveResize=0;rounded=0;shadow=0;strokeWidth=1;" parent="1" vertex="1">
          <mxGeometry x="335" y="80" width="100" height="660" as="geometry" />
        </mxCell>
        <mxCell id="3nuBFxr9cyL0pnOWT2aG-6" value="" style="points=[];perimeter=orthogonalPerimeter;rounded=0;shadow=0;strokeWidth=1;" parent="3nuBFxr9cyL0pnOWT2aG-5" vertex="1">
          <mxGeometry x="45" y="80" width="10" height="50" as="geometry" />
        </mxCell>
        <mxCell id="1vOSKHXe1nliGFfEZGOb-10" value="" style="html=1;points=[];perimeter=orthogonalPerimeter;" parent="3nuBFxr9cyL0pnOWT2aG-5" vertex="1">
          <mxGeometry x="45" y="300" width="10" height="80" as="geometry" />
        </mxCell>
        <mxCell id="1vOSKHXe1nliGFfEZGOb-13" value="dispatch" style="html=1;verticalAlign=bottom;endArrow=block;rounded=0;" parent="3nuBFxr9cyL0pnOWT2aG-5" edge="1">
          <mxGeometry width="80" relative="1" as="geometry">
            <mxPoint x="55" y="339.5" as="sourcePoint" />
            <mxPoint x="165" y="340" as="targetPoint" />
          </mxGeometry>
        </mxCell>
        <mxCell id="5uqEnYvKcgAW0d0VMUna-1" value="" style="html=1;points=[];perimeter=orthogonalPerimeter;" vertex="1" parent="3nuBFxr9cyL0pnOWT2aG-5">
          <mxGeometry x="45" y="457" width="10" height="80" as="geometry" />
        </mxCell>
        <mxCell id="5uqEnYvKcgAW0d0VMUna-3" value="根据员工企微ID、客户企微ID&lt;br&gt;、加密后的手机号&lt;br&gt;修改备注手机号" style="html=1;verticalAlign=bottom;endArrow=block;rounded=0;" edge="1" parent="3nuBFxr9cyL0pnOWT2aG-5">
          <mxGeometry width="80" relative="1" as="geometry">
            <mxPoint x="-154.5" y="480" as="sourcePoint" />
            <mxPoint x="45" y="480" as="targetPoint" />
          </mxGeometry>
        </mxCell>
        <mxCell id="3nuBFxr9cyL0pnOWT2aG-8" value="获取所有企业员工的企微ID" style="verticalAlign=bottom;endArrow=block;entryX=0;entryY=0;shadow=0;strokeWidth=1;" parent="1" source="3nuBFxr9cyL0pnOWT2aG-2" target="3nuBFxr9cyL0pnOWT2aG-6" edge="1">
          <mxGeometry relative="1" as="geometry">
            <mxPoint x="275" y="160" as="sourcePoint" />
          </mxGeometry>
        </mxCell>
        <mxCell id="3nuBFxr9cyL0pnOWT2aG-9" value="" style="verticalAlign=bottom;endArrow=block;entryX=0.9;entryY=0.633;shadow=0;strokeWidth=1;entryDx=0;entryDy=0;entryPerimeter=0;" parent="1" target="3nuBFxr9cyL0pnOWT2aG-2" edge="1">
          <mxGeometry relative="1" as="geometry">
            <mxPoint x="380" y="189" as="sourcePoint" />
            <mxPoint x="180" y="189" as="targetPoint" />
          </mxGeometry>
        </mxCell>
        <mxCell id="1vOSKHXe1nliGFfEZGOb-1" value="WeChat" style="shape=umlLifeline;perimeter=lifelinePerimeter;container=1;collapsible=0;recursiveResize=0;rounded=0;shadow=0;strokeWidth=1;" parent="1" vertex="1">
          <mxGeometry x="460" y="80" width="100" height="650" as="geometry" />
        </mxCell>
        <mxCell id="1vOSKHXe1nliGFfEZGOb-12" value="" style="points=[];perimeter=orthogonalPerimeter;rounded=0;shadow=0;strokeWidth=1;" parent="1vOSKHXe1nliGFfEZGOb-1" vertex="1">
          <mxGeometry x="45" y="330" width="10" height="50" as="geometry" />
        </mxCell>
        <mxCell id="1vOSKHXe1nliGFfEZGOb-14" value="" style="html=1;verticalAlign=bottom;endArrow=open;dashed=1;endSize=8;rounded=0;exitX=0.1;exitY=0.67;exitDx=0;exitDy=0;exitPerimeter=0;" parent="1vOSKHXe1nliGFfEZGOb-1" edge="1">
          <mxGeometry relative="1" as="geometry">
            <mxPoint x="45" y="360.5" as="sourcePoint" />
            <mxPoint x="-72" y="360" as="targetPoint" />
          </mxGeometry>
        </mxCell>
        <mxCell id="5uqEnYvKcgAW0d0VMUna-2" value="" style="points=[];perimeter=orthogonalPerimeter;rounded=0;shadow=0;strokeWidth=1;" vertex="1" parent="1vOSKHXe1nliGFfEZGOb-1">
          <mxGeometry x="45" y="490" width="10" height="50" as="geometry" />
        </mxCell>
        <mxCell id="5uqEnYvKcgAW0d0VMUna-5" value="" style="html=1;verticalAlign=bottom;endArrow=open;dashed=1;endSize=8;rounded=0;exitX=0.1;exitY=0.67;exitDx=0;exitDy=0;exitPerimeter=0;" edge="1" parent="1vOSKHXe1nliGFfEZGOb-1">
          <mxGeometry relative="1" as="geometry">
            <mxPoint x="45" y="515" as="sourcePoint" />
            <mxPoint x="-72" y="514.5" as="targetPoint" />
          </mxGeometry>
        </mxCell>
        <mxCell id="1vOSKHXe1nliGFfEZGOb-11" value="根据员工企微ID 获取备注手机号、&lt;br&gt;客户企微ID" style="html=1;verticalAlign=bottom;endArrow=block;rounded=0;" parent="1" edge="1">
          <mxGeometry width="80" relative="1" as="geometry">
            <mxPoint x="180" y="410" as="sourcePoint" />
            <mxPoint x="379.5" y="410" as="targetPoint" />
          </mxGeometry>
        </mxCell>
        <mxCell id="1vOSKHXe1nliGFfEZGOb-15" value="return" style="html=1;verticalAlign=bottom;endArrow=open;dashed=1;endSize=8;rounded=0;entryX=0.9;entryY=0.661;entryDx=0;entryDy=0;entryPerimeter=0;exitX=-0.5;exitY=0.863;exitDx=0;exitDy=0;exitPerimeter=0;" parent="1" source="1vOSKHXe1nliGFfEZGOb-10" edge="1">
          <mxGeometry relative="1" as="geometry">
            <mxPoint x="370" y="450" as="sourcePoint" />
            <mxPoint x="180" y="450" as="targetPoint" />
          </mxGeometry>
        </mxCell>
        <mxCell id="1vOSKHXe1nliGFfEZGOb-19" value="1. 获取所有员工企微ID 接口（BOSS）&lt;br&gt;2.获取客户企微ID接口（BOSS）&lt;br&gt;&lt;div&gt;&lt;span&gt;3.获取客户详情接口 （BOSS）&lt;/span&gt;&lt;/div&gt;&lt;div&gt;&lt;span&gt;4.修改手机备注定时任务（CRM）&lt;br&gt;&lt;/span&gt;&lt;/div&gt;" style="text;html=1;align=left;verticalAlign=middle;resizable=0;points=[];autosize=1;strokeColor=none;fillColor=none;" parent="1" vertex="1">
          <mxGeometry x="550" y="160" width="220" height="60" as="geometry" />
        </mxCell>
        <mxCell id="1vOSKHXe1nliGFfEZGOb-22" value="&lt;font color=&quot;#ff3333&quot;&gt;新增接口&lt;/font&gt;" style="text;html=1;align=center;verticalAlign=middle;resizable=0;points=[];autosize=1;strokeColor=none;fillColor=none;" parent="1" vertex="1">
          <mxGeometry x="590" y="130" width="60" height="20" as="geometry" />
        </mxCell>
        <mxCell id="5uqEnYvKcgAW0d0VMUna-4" value="dispatch" style="html=1;verticalAlign=bottom;endArrow=block;rounded=0;" edge="1" parent="1">
          <mxGeometry width="80" relative="1" as="geometry">
            <mxPoint x="395" y="580" as="sourcePoint" />
            <mxPoint x="505" y="580.5" as="targetPoint" />
          </mxGeometry>
        </mxCell>
      </root>
    </mxGraphModel>
  </diagram>
</mxfile>
